<svg xmlns="http://www.w3.org/2000/svg" aria-hidden="true" style="position:absolute;width:0;height:0;overflow:hidden"><defs><symbol id="icon-burger" viewBox="0 0 47 32"><path fill="none" stroke="#ecd979" stroke-linecap="round" stroke-width="3.2" d="M8.742 5.188h36.591M8.742 24.582h36.591M19.965 14.885h25.368" style="stroke:var(--color1, #ecd979)"/></symbol><symbol id="icon-facebook" viewBox="0 0 32 32"><path fill="#fcf9f9" d="M19.52 4.64h.96v3.6h-1.2c-.48 0-.96 0-1.2.24s-.24.48-.24 1.04v1.28h2.64v3.04h-2.64v13.2h-4.08V13.76H11.6v-3.04h2.16V9.68c0-1.76.24-3.04.72-3.6.72-1.04 2.16-1.52 4.32-1.52.24.08.48.08.72.08z" opacity=".8" style="fill:var(--color2, #fcf9f9)"/></symbol><symbol id="icon-instagram" viewBox="0 0 32 32"><path fill="#fcf9f9" d="M28.717 10.756a9.264 9.264 0 0 0-.596-3.145 6.547 6.547 0 0 0-3.743-3.737 9.42 9.42 0 0 0-3.108-.596c-1.368-.061-1.801-.078-5.273-.078s-3.917 0-5.274.078a9.418 9.418 0 0 0-3.106.596 6.541 6.541 0 0 0-3.743 3.737 9.288 9.288 0 0 0-.596 3.101c-.061 1.367-.08 1.8-.08 5.265s0 3.909.08 5.265a9.335 9.335 0 0 0 .596 3.104 6.548 6.548 0 0 0 3.744 3.735 9.37 9.37 0 0 0 3.106.639c1.369.061 1.803.08 5.274.08s3.916 0 5.274-.08a9.357 9.357 0 0 0 3.108-.595 6.555 6.555 0 0 0 3.743-3.737 9.35 9.35 0 0 0 .596-3.104c.061-1.365.08-1.798.08-5.265-.003-3.466-.003-3.906-.082-5.264zM15.99 22.531c-3.631 0-6.572-2.936-6.572-6.561s2.941-6.561 6.572-6.561c3.628 0 6.572 2.936 6.572 6.561s-2.944 6.561-6.572 6.561zm6.833-11.835a1.53 1.53 0 1 1 0-3.06 1.53 1.53 0 1 1 0 3.06z" opacity=".8" style="fill:var(--color2, #fcf9f9)"/><path fill="#fcf9f9" d="M15.992 19.976a4.004 4.004 0 1 0 0-8.009 4.004 4.004 0 0 0 0 8.009z" opacity=".8" style="fill:var(--color2, #fcf9f9)"/></symbol><symbol id="icon-logo" viewBox="0 0 35 32"><path fill="#ecd979" d="M15.392 11.53h-1.098v-1.113h1.098v1.113z" style="fill:var(--color1, #ecd979)"/><path fill="#ecd979" d="M14.294 11.53h-1.098v-1.113h1.098v1.113zM8.804 11.53H7.706v-1.113h1.098v1.113z" style="fill:var(--color1, #ecd979)"/><path fill="#ecd979" d="M7.707 11.53H6.609v-1.113h1.098v1.113zM6.609 11.53H5.511v-1.113h1.098v1.113zM28.566 10.417h-1.098V9.304h1.098v1.113zM27.468 10.417H26.37V9.304h1.098v1.113zM19.783 10.417h-1.098V9.304h1.098v1.113zM18.685 10.417h-1.098V9.304h1.098v1.113zM16.489 10.417h-1.098V9.304h1.098v1.113z" style="fill:var(--color1, #ecd979)"/><path fill="#ecd979" d="M15.392 10.417h-1.098V9.304h1.098v1.113zM7.707 10.417H6.609V9.304h1.098v1.113zM6.609 10.417H5.511V9.304h1.098v1.113zM28.566 9.304h-1.098V8.191h1.098v1.113zM18.685 9.304h-1.098V8.191h1.098v1.113zM16.489 9.304h-1.098V8.191h1.098v1.113zM6.609 9.304H5.511V8.191h1.098v1.113zM34.055 8.191h-1.098V7.078h1.098v1.113zM1.12 8.191H.022V7.078H1.12v1.113zM34.055 7.078h-1.098V5.965h1.098v1.113zM32.957 7.078h-1.098V5.965h1.098v1.113zM23.076 7.078h-1.098V5.965h1.098v1.113zM21.978 7.078H20.88V5.965h1.098v1.113z" style="fill:var(--color1, #ecd979)"/><path fill="#ecd979" d="M20.881 7.078h-1.098V5.965h1.098v1.113zM14.294 7.078h-1.098V5.965h1.098v1.113zM13.196 7.078h-1.098V5.965h1.098v1.113z" style="fill:var(--color1, #ecd979)"/><path fill="#ecd979" d="M12.098 7.078H11V5.965h1.098v1.113zM2.217 7.078H1.119V5.965h1.098v1.113z" style="fill:var(--color1, #ecd979)"/><path fill="#ecd979" d="M1.12 7.078H.022V5.965H1.12v1.113zM34.055 5.965h-1.098V4.852h1.098v1.113zM32.957 5.965h-1.098V4.852h1.098v1.113zM31.859 5.965h-1.098V4.852h1.098v1.113zM24.174 5.965h-1.098V4.852h1.098v1.113zM23.076 5.965h-1.098V4.852h1.098v1.113zM21.978 5.965H20.88V4.852h1.098v1.113zM18.685 5.965h-1.098V4.852h1.098v1.113zM16.489 5.965h-1.098V4.852h1.098v1.113zM13.196 5.965h-1.098V4.852h1.098v1.113z" style="fill:var(--color1, #ecd979)"/><path fill="#ecd979" d="M12.098 5.965H11V4.852h1.098v1.113zM11 5.965H9.902V4.852H11v1.113zM3.315 5.965H2.217V4.852h1.098v1.113zM2.217 5.965H1.119V4.852h1.098v1.113z" style="fill:var(--color1, #ecd979)"/><path fill="#ecd979" d="M1.12 5.965H.022V4.852H1.12v1.113zM32.957 4.852h-1.098V3.739h1.098v1.113zM31.859 4.852h-1.098V3.739h1.098v1.113zM30.761 4.852h-1.098V3.739h1.098v1.113zM25.272 4.852h-1.098V3.739h1.098v1.113zM24.174 4.852h-1.098V3.739h1.098v1.113zM23.076 4.852h-1.098V3.739h1.098v1.113zM19.783 4.852h-1.098V3.739h1.098v1.113zM18.685 4.852h-1.098V3.739h1.098v1.113zM16.489 4.852h-1.098V3.739h1.098v1.113z" style="fill:var(--color1, #ecd979)"/><path fill="#ecd979" d="M15.392 4.852h-1.098V3.739h1.098v1.113zM12.098 4.852H11V3.739h1.098v1.113zM11 4.852H9.902V3.739H11v1.113z" style="fill:var(--color1, #ecd979)"/><path fill="#ecd979" d="M9.902 4.852H8.804V3.739h1.098v1.113zM4.413 4.852H3.315V3.739h1.098v1.113z" style="fill:var(--color1, #ecd979)"/><path fill="#ecd979" d="M3.315 4.852H2.217V3.739h1.098v1.113zM2.217 4.852H1.119V3.739h1.098v1.113zM31.859 3.739h-1.098V2.626h1.098v1.113zM30.761 3.739h-1.098V2.626h1.098v1.113z" style="fill:var(--color1, #ecd979)"/><path fill="#ecd979" d="M29.664 3.739h-1.098V2.626h1.098v1.113zM20.881 3.739h-1.098V2.626h1.098v1.113zM19.783 3.739h-1.098V2.626h1.098v1.113zM18.685 3.739h-1.098V2.626h1.098v1.113zM16.489 3.739h-1.098V2.626h1.098v1.113z" style="fill:var(--color1, #ecd979)"/><path fill="#ecd979" d="M15.392 3.739h-1.098V2.626h1.098v1.113z" style="fill:var(--color1, #ecd979)"/><path fill="#ecd979" d="M14.294 3.739h-1.098V2.626h1.098v1.113zM5.511 3.739H4.413V2.626h1.098v1.113zM4.413 3.739H3.315V2.626h1.098v1.113z" style="fill:var(--color1, #ecd979)"/><path fill="#ecd979" d="M3.315 3.739H2.217V2.626h1.098v1.113zM35.153 2.626h-1.098V1.513h1.098v1.113zM30.761 2.626h-1.098V1.513h1.098v1.113z" style="fill:var(--color1, #ecd979)"/><path fill="#ecd979" d="M29.664 2.626h-1.098V1.513h1.098v1.113zM28.566 2.626h-1.098V1.513h1.098v1.113zM20.881 2.626h-1.098V1.513h1.098v1.113zM19.783 2.626h-1.098V1.513h1.098v1.113zM15.392 2.626h-1.098V1.513h1.098v1.113z" style="fill:var(--color1, #ecd979)"/><path fill="#ecd979" d="M14.294 2.626h-1.098V1.513h1.098v1.113zM6.609 2.626H5.511V1.513h1.098v1.113zM5.511 2.626H4.413V1.513h1.098v1.113zM4.413 2.626H3.315V1.513h1.098v1.113zM35.153 1.513h-1.098V.4h1.098v1.113zM34.055 1.513h-1.098V.4h1.098v1.113zM29.664 1.513h-1.098V.4h1.098v1.113zM28.566 1.513h-1.098V.4h1.098v1.113zM27.468 1.513H26.37V.4h1.098v1.113zM20.881 1.513h-1.098V.4h1.098v1.113zM14.294 1.513h-1.098V.4h1.098v1.113zM7.707 1.513H6.609V.4h1.098v1.113zM6.609 1.513H5.511V.4h1.098v1.113zM5.511 1.513H4.413V.4h1.098v1.113zM1.12 1.513H.022V.4H1.12v1.113z" style="fill:var(--color1, #ecd979)"/></symbol><symbol id="icon-mobile-menu-elements" viewBox="0 0 33 32"><path d="M32.464 33.394H30.97v-1.518h1.494v1.518zM19.015 33.394h-1.494v-1.518h1.494v1.518zM16.027 33.394h-1.494v-1.518h1.494v1.518zM2.578 33.394H1.084v-1.518h1.494v1.518z"/><path d="M32.464 31.876H30.97v-1.518h1.494v1.518zM30.97 31.876h-1.494v-1.518h1.494v1.518zM20.51 31.876h-1.494v-1.518h1.494v1.518zM19.015 31.876h-1.494v-1.518h1.494v1.518zM16.027 31.876h-1.494v-1.518h1.494v1.518zM14.533 31.876h-1.494v-1.518h1.494v1.518zM4.072 31.876H2.578v-1.518h1.494v1.518z"/><path d="M2.578 31.876H1.084v-1.518h1.494v1.518zM32.464 30.359H30.97v-1.518h1.494v1.518zM30.97 30.359h-1.494v-1.518h1.494v1.518zM29.476 30.359h-1.494v-1.518h1.494v1.518zM22.004 30.359H20.51v-1.518h1.494v1.518zM20.51 30.359h-1.494v-1.518h1.494v1.518zM14.533 30.359h-1.494v-1.518h1.494v1.518zM13.038 30.359h-1.494v-1.518h1.494v1.518zM5.567 30.359H4.073v-1.518h1.494v1.518z"/><path d="M4.072 30.359H2.578v-1.518h1.494v1.518z"/><path d="M2.578 30.359H1.084v-1.518h1.494v1.518zM30.97 28.841h-1.494v-1.518h1.494v1.518zM29.476 28.841h-1.494v-1.518h1.494v1.518zM23.498 28.841h-1.494v-1.518h1.494v1.518zM22.004 28.841H20.51v-1.518h1.494v1.518zM13.038 28.841h-1.494v-1.518h1.494v1.518zM11.544 28.841H10.05v-1.518h1.494v1.518zM5.567 28.841H4.073v-1.518h1.494v1.518zM4.072 28.841H2.578v-1.518h1.494v1.518zM33.959 27.323h-1.494v-1.518h1.494v1.518zM29.476 27.323h-1.494v-1.518h1.494v1.518zM24.993 27.323h-1.494v-1.518h1.494v1.518zM23.498 27.323h-1.494v-1.518h1.494v1.518zM11.544 27.323H10.05v-1.518h1.494v1.518zM10.05 27.323H8.556v-1.518h1.494v1.518zM5.567 27.323H4.073v-1.518h1.494v1.518zM1.084 27.323H-.41v-1.518h1.494v1.518zM33.959 25.805h-1.494v-1.518h1.494v1.518zM32.464 25.805H30.97v-1.518h1.494v1.518zM26.487 25.805h-1.494v-1.518h1.494v1.518zM24.993 25.805h-1.494v-1.518h1.494v1.518zM10.05 25.805H8.556v-1.518h1.494v1.518zM8.555 25.805H7.061v-1.518h1.494v1.518zM2.578 25.805H1.084v-1.518h1.494v1.518zM1.084 25.805H-.41v-1.518h1.494v1.518zM33.959 24.287h-1.494v-1.518h1.494v1.518zM32.464 24.287H30.97v-1.518h1.494v1.518zM30.97 24.287h-1.494v-1.518h1.494v1.518zM27.981 24.287h-1.494v-1.518h1.494v1.518zM26.487 24.287h-1.494v-1.518h1.494v1.518zM17.521 24.287h-1.494v-1.518h1.494v1.518zM8.555 24.287H7.061v-1.518h1.494v1.518zM7.061 24.287H5.567v-1.518h1.494v1.518zM4.072 24.287H2.578v-1.518h1.494v1.518z"/><path d="M2.578 24.287H1.084v-1.518h1.494v1.518zM1.084 24.287H-.41v-1.518h1.494v1.518zM19.015 22.769h-1.494v-1.518h1.494v1.518zM17.521 22.769h-1.494v-1.518h1.494v1.518zM16.027 22.769h-1.494v-1.518h1.494v1.518zM33.959 21.251h-1.494v-1.518h1.494v1.518zM32.464 21.251H30.97v-1.518h1.494v1.518zM30.97 21.251h-1.494v-1.518h1.494v1.518zM27.981 21.251h-1.494v-1.518h1.494v1.518zM26.487 21.251h-1.494v-1.518h1.494v1.518z"/><path d="M17.521 21.251h-1.494v-1.518h1.494v1.518zM8.555 21.251H7.061v-1.518h1.494v1.518zM7.061 21.251H5.567v-1.518h1.494v1.518zM4.072 21.251H2.578v-1.518h1.494v1.518z"/><path d="M2.578 21.251H1.084v-1.518h1.494v1.518zM1.084 21.251H-.41v-1.518h1.494v1.518zM33.959 19.733h-1.494v-1.518h1.494v1.518zM32.464 19.733H30.97v-1.518h1.494v1.518zM26.487 19.733h-1.494v-1.518h1.494v1.518zM24.993 19.733h-1.494v-1.518h1.494v1.518zM10.05 19.733H8.556v-1.518h1.494v1.518zM8.555 19.733H7.061v-1.518h1.494v1.518zM2.578 19.733H1.084v-1.518h1.494v1.518zM1.084 19.733H-.41v-1.518h1.494v1.518zM33.959 18.215h-1.494v-1.518h1.494v1.518zM29.476 18.215h-1.494v-1.518h1.494v1.518zM24.993 18.215h-1.494v-1.518h1.494v1.518zM23.498 18.215h-1.494v-1.518h1.494v1.518zM11.544 18.215H10.05v-1.518h1.494v1.518zM10.05 18.215H8.556v-1.518h1.494v1.518zM5.567 18.215H4.073v-1.518h1.494v1.518zM1.084 18.215H-.41v-1.518h1.494v1.518zM30.97 16.697h-1.494v-1.518h1.494v1.518zM29.476 16.697h-1.494v-1.518h1.494v1.518zM23.498 16.697h-1.494v-1.518h1.494v1.518zM22.004 16.697H20.51v-1.518h1.494v1.518zM13.038 16.697h-1.494v-1.518h1.494v1.518zM11.544 16.697H10.05v-1.518h1.494v1.518zM5.567 16.697H4.073v-1.518h1.494v1.518zM4.072 16.697H2.578v-1.518h1.494v1.518zM32.464 15.179H30.97v-1.518h1.494v1.518z"/><path d="M30.97 15.179h-1.494v-1.518h1.494v1.518zM29.476 15.179h-1.494v-1.518h1.494v1.518zM22.004 15.179H20.51v-1.518h1.494v1.518zM20.51 15.179h-1.494v-1.518h1.494v1.518zM14.533 15.179h-1.494v-1.518h1.494v1.518zM13.038 15.179h-1.494v-1.518h1.494v1.518zM5.567 15.179H4.073v-1.518h1.494v1.518zM4.072 15.179H2.578v-1.518h1.494v1.518z"/><path d="M2.578 15.179H1.084v-1.518h1.494v1.518zM32.464 13.661H30.97v-1.518h1.494v1.518zM30.97 13.661h-1.494v-1.518h1.494v1.518zM20.51 13.661h-1.494v-1.518h1.494v1.518zM19.015 13.661h-1.494v-1.518h1.494v1.518zM16.027 13.661h-1.494v-1.518h1.494v1.518zM14.533 13.661h-1.494v-1.518h1.494v1.518zM4.072 13.661H2.578v-1.518h1.494v1.518z"/><path d="M2.578 13.661H1.084v-1.518h1.494v1.518zM32.464 12.143H30.97v-1.518h1.494v1.518zM19.015 12.143h-1.494v-1.518h1.494v1.518zM16.027 12.143h-1.494v-1.518h1.494v1.518z"/><path d="M2.578 12.143H1.084v-1.518h1.494v1.518zM24.993 9.108h-1.494V7.59h1.494v1.518zM23.498 9.108h-1.494V7.59h1.494v1.518zM22.004 9.108H20.51V7.59h1.494v1.518zM13.038 9.108h-1.494V7.59h1.494v1.518zM11.544 9.108H10.05V7.59h1.494v1.518zM10.05 9.108H8.556V7.59h1.494v1.518zM26.487 7.59h-1.494V6.072h1.494V7.59zM24.993 7.59h-1.494V6.072h1.494V7.59zM23.498 7.59h-1.494V6.072h1.494V7.59zM19.015 7.59h-1.494V6.072h1.494V7.59zM16.027 7.59h-1.494V6.072h1.494V7.59zM11.544 7.59H10.05V6.072h1.494V7.59zM10.05 7.59H8.556V6.072h1.494V7.59zM8.555 7.59H7.061V6.072h1.494V7.59zM27.981 6.072h-1.494V4.554h1.494v1.518zM26.487 6.072h-1.494V4.554h1.494v1.518zM24.993 6.072h-1.494V4.554h1.494v1.518zM20.51 6.072h-1.494V4.554h1.494v1.518zM19.015 6.072h-1.494V4.554h1.494v1.518zM16.027 6.072h-1.494V4.554h1.494v1.518zM14.533 6.072h-1.494V4.554h1.494v1.518zM10.05 6.072H8.556V4.554h1.494v1.518zM8.555 6.072H7.061V4.554h1.494v1.518zM7.061 6.072H5.567V4.554h1.494v1.518zM33.959 4.554h-1.494V3.036h1.494v1.518zM22.004 4.554H20.51V3.036h1.494v1.518zM20.51 4.554h-1.494V3.036h1.494v1.518zM19.015 4.554h-1.494V3.036h1.494v1.518zM16.027 4.554h-1.494V3.036h1.494v1.518zM14.533 4.554h-1.494V3.036h1.494v1.518zM13.038 4.554h-1.494V3.036h1.494v1.518zM1.084 4.554H-.41V3.036h1.494v1.518zM33.959 3.036h-1.494V1.518h1.494v1.518zM32.464 3.036H30.97V1.518h1.494v1.518zM22.004 3.036H20.51V1.518h1.494v1.518zM20.51 3.036h-1.494V1.518h1.494v1.518zM14.533 3.036h-1.494V1.518h1.494v1.518zM13.038 3.036h-1.494V1.518h1.494v1.518zM2.578 3.036H1.084V1.518h1.494v1.518zM1.084 3.036H-.41V1.518h1.494v1.518zM33.959 1.518h-1.494V0h1.494v1.518zM32.464 1.518H30.97V0h1.494v1.518zM30.97 1.518h-1.494V0h1.494v1.518zM22.004 1.518H20.51V0h1.494v1.518zM13.038 1.518h-1.494V0h1.494v1.518zM4.072 1.518H2.578V0h1.494v1.518z"/><path d="M2.578 1.518H1.084V0h1.494v1.518zM1.084 1.518H-.41V0h1.494v1.518z"/></symbol><symbol id="icon-ornament-vyshyvanka" viewBox="0 0 22 32"><path fill="#fcf9f9" d="M21.439 31.964h-1.124v-1.142h1.124v1.142zM20.315 31.964h-1.124v-1.142h1.124v1.142zM15.82 31.964h-1.124v-1.142h1.124v1.142zM14.696 31.964h-1.124v-1.142h1.124v1.142zM13.572 31.964h-1.124v-1.142h1.124v1.142zM6.829 31.964H5.705v-1.142h1.124v1.142zM.087 31.964h-1.124v-1.142H.087v1.142z" opacity=".1" style="fill:var(--color2, #fcf9f9)"/><path fill="#fcf9f9" d="M21.439 30.823h-1.124v-1.142h1.124v1.142zM16.944 30.823H15.82v-1.142h1.124v1.142zM15.82 30.823h-1.124v-1.142h1.124v1.142zM14.696 30.823h-1.124v-1.142h1.124v1.142zM6.829 30.823H5.705v-1.142h1.124v1.142z" opacity=".1" style="fill:var(--color2, #fcf9f9)"/><path fill="#fcf9f9" d="M5.706 30.823H4.582v-1.142h1.124v1.142zM1.21 30.823H.086v-1.142H1.21v1.142z" opacity=".1" style="fill:var(--color2, #fcf9f9)"/><path fill="#fcf9f9" d="M.087 30.823h-1.124v-1.142H.087v1.142zM18.068 29.681h-1.124v-1.142h1.124v1.142zM16.944 29.681H15.82v-1.142h1.124v1.142zM15.82 29.681h-1.124v-1.142h1.124v1.142zM6.829 29.681H5.705v-1.142h1.124v1.142z" opacity=".1" style="fill:var(--color2, #fcf9f9)"/><path fill="#fcf9f9" d="M5.706 29.681H4.582v-1.142h1.124v1.142z" opacity=".1" style="fill:var(--color2, #fcf9f9)"/><path fill="#fcf9f9" d="M4.582 29.681H3.458v-1.142h1.124v1.142zM2.334 29.681H1.21v-1.142h1.124v1.142zM1.21 29.681H.086v-1.142H1.21v1.142z" opacity=".1" style="fill:var(--color2, #fcf9f9)"/><path fill="#fcf9f9" d="M.087 29.681h-1.124v-1.142H.087v1.142zM19.192 28.54h-1.124v-1.142h1.124v1.142zM18.068 28.54h-1.124v-1.142h1.124v1.142zM16.944 28.54H15.82v-1.142h1.124v1.142zM11.325 28.54h-1.124v-1.142h1.124v1.142z" opacity=".1" style="fill:var(--color2, #fcf9f9)"/><path fill="#fcf9f9" d="M10.201 28.54H9.077v-1.142h1.124v1.142zM9.077 28.54H7.953v-1.142h1.124v1.142zM5.706 28.54H4.582v-1.142h1.124v1.142z" opacity=".1" style="fill:var(--color2, #fcf9f9)"/><path fill="#fcf9f9" d="M4.582 28.54H3.458v-1.142h1.124v1.142zM2.334 28.54H1.21v-1.142h1.124v1.142zM1.21 28.54H.086v-1.142H1.21v1.142zM20.315 27.398h-1.124v-1.142h1.124v1.142z" opacity=".1" style="fill:var(--color2, #fcf9f9)"/><path fill="#fcf9f9" d="M19.192 27.398h-1.124v-1.142h1.124v1.142zM18.068 27.398h-1.124v-1.142h1.124v1.142zM10.201 27.398H9.077v-1.142h1.124v1.142zM9.077 27.398H7.953v-1.142h1.124v1.142zM7.953 27.398H6.829v-1.142h1.124v1.142zM4.582 27.398H3.458v-1.142h1.124v1.142zM2.334 27.398H1.21v-1.142h1.124v1.142zM20.315 26.256h-1.124v-1.142h1.124v1.142z" opacity=".1" style="fill:var(--color2, #fcf9f9)"/><path fill="#fcf9f9" d="M19.192 26.256h-1.124v-1.142h1.124v1.142zM9.077 26.256H7.953v-1.142h1.124v1.142zM7.953 26.256H6.829v-1.142h1.124v1.142z" opacity=".1" style="fill:var(--color2, #fcf9f9)"/><path fill="#fcf9f9" d="M6.829 26.256H5.705v-1.142h1.124v1.142zM.087 26.256h-1.124v-1.142H.087v1.142zM20.315 25.115h-1.124v-1.142h1.124v1.142zM14.696 25.115h-1.124v-1.142h1.124v1.142zM4.582 25.115H3.458v-1.142h1.124v1.142zM2.334 25.115H1.21v-1.142h1.124v1.142zM14.696 23.973h-1.124v-1.142h1.124v1.142zM13.572 23.973h-1.124v-1.142h1.124v1.142zM5.706 23.973H4.582v-1.142h1.124v1.142z" opacity=".1" style="fill:var(--color2, #fcf9f9)"/><path fill="#fcf9f9" d="M4.582 23.973H3.458v-1.142h1.124v1.142zM2.334 23.973H1.21v-1.142h1.124v1.142zM1.21 23.973H.086v-1.142H1.21v1.142zM14.696 22.832h-1.124V21.69h1.124v1.142zM13.572 22.832h-1.124V21.69h1.124v1.142z" opacity=".1" style="fill:var(--color2, #fcf9f9)"/><path fill="#fcf9f9" d="M12.449 22.832h-1.124V21.69h1.124v1.142zM6.829 22.832H5.705V21.69h1.124v1.142z" opacity=".1" style="fill:var(--color2, #fcf9f9)"/><path fill="#fcf9f9" d="M5.706 22.832H4.582V21.69h1.124v1.142zM1.21 22.832H.086V21.69H1.21v1.142z" opacity=".1" style="fill:var(--color2, #fcf9f9)"/><path fill="#fcf9f9" d="M.087 22.832h-1.124V21.69H.087v1.142zM13.572 21.69h-1.124v-1.142h1.124v1.142z" opacity=".1" style="fill:var(--color2, #fcf9f9)"/><path fill="#fcf9f9" d="M12.449 21.69h-1.124v-1.142h1.124v1.142zM7.953 21.69H6.829v-1.142h1.124v1.142z" opacity=".1" style="fill:var(--color2, #fcf9f9)"/><path fill="#fcf9f9" d="M6.829 21.69H5.705v-1.142h1.124v1.142zM.087 21.69h-1.124v-1.142H.087v1.142zM18.068 20.549h-1.124v-1.142h1.124v1.142zM16.944 20.549H15.82v-1.142h1.124v1.142zM15.82 20.549h-1.124v-1.142h1.124v1.142zM12.449 20.549h-1.124v-1.142h1.124v1.142zM9.077 20.549H7.953v-1.142h1.124v1.142z" opacity=".1" style="fill:var(--color2, #fcf9f9)"/><path fill="#fcf9f9" d="M7.953 20.549H6.829v-1.142h1.124v1.142zM21.439 19.407h-1.124v-1.142h1.124v1.142zM16.944 19.407H15.82v-1.142h1.124v1.142zM15.82 19.407h-1.124v-1.142h1.124v1.142zM14.696 19.407h-1.124v-1.142h1.124v1.142zM10.201 19.407H9.077v-1.142h1.124v1.142zM9.077 19.407H7.953v-1.142h1.124v1.142zM21.439 18.265h-1.124v-1.142h1.124v1.142zM20.315 18.265h-1.124v-1.142h1.124v1.142zM15.82 18.265h-1.124v-1.142h1.124v1.142zM14.696 18.265h-1.124v-1.142h1.124v1.142zM13.572 18.265h-1.124v-1.142h1.124v1.142zM11.325 18.265h-1.124v-1.142h1.124v1.142z" opacity=".1" style="fill:var(--color2, #fcf9f9)"/><path fill="#fcf9f9" d="M10.201 18.265H9.077v-1.142h1.124v1.142zM3.458 18.265H2.334v-1.142h1.124v1.142zM21.439 17.124h-1.124v-1.142h1.124v1.142zM20.315 17.124h-1.124v-1.142h1.124v1.142z" opacity=".1" style="fill:var(--color2, #fcf9f9)"/><path fill="#fcf9f9" d="M19.192 17.124h-1.124v-1.142h1.124v1.142zM4.582 17.124H3.458v-1.142h1.124v1.142zM3.458 17.124H2.334v-1.142h1.124v1.142zM2.334 17.124H1.21v-1.142h1.124v1.142zM21.439 15.982h-1.124V14.84h1.124v1.142zM20.315 15.982h-1.124V14.84h1.124v1.142zM15.82 15.982h-1.124V14.84h1.124v1.142zM14.696 15.982h-1.124V14.84h1.124v1.142zM13.572 15.982h-1.124V14.84h1.124v1.142zM11.325 15.982h-1.124V14.84h1.124v1.142z" opacity=".1" style="fill:var(--color2, #fcf9f9)"/><path fill="#fcf9f9" d="M10.201 15.982H9.077V14.84h1.124v1.142zM3.458 15.982H2.334V14.84h1.124v1.142zM21.439 14.841h-1.124v-1.142h1.124v1.142zM16.944 14.841H15.82v-1.142h1.124v1.142zM15.82 14.841h-1.124v-1.142h1.124v1.142zM14.696 14.841h-1.124v-1.142h1.124v1.142z" opacity=".1" style="fill:var(--color2, #fcf9f9)"/><path fill="#fcf9f9" d="M10.201 14.841H9.077v-1.142h1.124v1.142zM9.077 14.841H7.953v-1.142h1.124v1.142zM18.068 13.699h-1.124v-1.142h1.124v1.142zM16.944 13.699H15.82v-1.142h1.124v1.142zM15.82 13.699h-1.124v-1.142h1.124v1.142zM12.449 13.699h-1.124v-1.142h1.124v1.142zM9.077 13.699H7.953v-1.142h1.124v1.142zM7.953 13.699H6.829v-1.142h1.124v1.142zM13.572 12.557h-1.124v-1.142h1.124v1.142z" opacity=".1" style="fill:var(--color2, #fcf9f9)"/><path fill="#fcf9f9" d="M12.449 12.557h-1.124v-1.142h1.124v1.142zM7.953 12.557H6.829v-1.142h1.124v1.142z" opacity=".1" style="fill:var(--color2, #fcf9f9)"/><path fill="#fcf9f9" d="M6.829 12.557H5.705v-1.142h1.124v1.142zM.087 12.557h-1.124v-1.142H.087v1.142zM14.696 11.416h-1.124v-1.142h1.124v1.142zM13.572 11.416h-1.124v-1.142h1.124v1.142z" opacity=".1" style="fill:var(--color2, #fcf9f9)"/><path fill="#fcf9f9" d="M12.449 11.416h-1.124v-1.142h1.124v1.142zM6.829 11.416H5.705v-1.142h1.124v1.142z" opacity=".1" style="fill:var(--color2, #fcf9f9)"/><path fill="#fcf9f9" d="M5.706 11.416H4.582v-1.142h1.124v1.142zM1.21 11.416H.086v-1.142H1.21v1.142z" opacity=".1" style="fill:var(--color2, #fcf9f9)"/><path fill="#fcf9f9" d="M.087 11.416h-1.124v-1.142H.087v1.142zM14.696 10.274h-1.124V9.132h1.124v1.142zM13.572 10.274h-1.124V9.132h1.124v1.142zM5.706 10.274H4.582V9.132h1.124v1.142z" opacity=".1" style="fill:var(--color2, #fcf9f9)"/><path fill="#fcf9f9" d="M4.582 10.274H3.458V9.132h1.124v1.142zM2.334 10.274H1.21V9.132h1.124v1.142zM1.21 10.274H.086V9.132H1.21v1.142zM14.696 9.133h-1.124V7.991h1.124v1.142z" opacity=".1" style="fill:var(--color2, #fcf9f9)"/><path fill="#fcf9f9" d="M4.582 9.133H3.458V7.991h1.124v1.142zM2.334 9.133H1.21V7.991h1.124v1.142zM20.315 7.991h-1.124V6.849h1.124v1.142z" opacity=".1" style="fill:var(--color2, #fcf9f9)"/><path fill="#fcf9f9" d="M20.315 6.85h-1.124V5.708h1.124V6.85z" opacity=".1" style="fill:var(--color2, #fcf9f9)"/><path fill="#fcf9f9" d="M19.192 6.85h-1.124V5.708h1.124V6.85zM9.077 6.85H7.953V5.708h1.124V6.85zM7.953 6.85H6.829V5.708h1.124V6.85z" opacity=".1" style="fill:var(--color2, #fcf9f9)"/><path fill="#fcf9f9" d="M6.829 6.85H5.705V5.708h1.124V6.85zM.087 6.85h-1.124V5.708H.087V6.85zM20.315 5.708h-1.124V4.566h1.124v1.142z" opacity=".1" style="fill:var(--color2, #fcf9f9)"/><path fill="#fcf9f9" d="M19.192 5.708h-1.124V4.566h1.124v1.142zM18.068 5.708h-1.124V4.566h1.124v1.142zM10.201 5.708H9.077V4.566h1.124v1.142zM9.077 5.708H7.953V4.566h1.124v1.142zM7.953 5.708H6.829V4.566h1.124v1.142zM4.582 5.708H3.458V4.566h1.124v1.142zM2.334 5.708H1.21V4.566h1.124v1.142zM19.192 4.566h-1.124V3.424h1.124v1.142zM18.068 4.566h-1.124V3.424h1.124v1.142zM16.944 4.566H15.82V3.424h1.124v1.142zM11.325 4.566h-1.124V3.424h1.124v1.142z" opacity=".1" style="fill:var(--color2, #fcf9f9)"/><path fill="#fcf9f9" d="M10.201 4.566H9.077V3.424h1.124v1.142zM9.077 4.566H7.953V3.424h1.124v1.142zM5.706 4.566H4.582V3.424h1.124v1.142z" opacity=".1" style="fill:var(--color2, #fcf9f9)"/><path fill="#fcf9f9" d="M4.582 4.566H3.458V3.424h1.124v1.142zM2.334 4.566H1.21V3.424h1.124v1.142zM1.21 4.566H.086V3.424H1.21v1.142zM18.068 3.425h-1.124V2.283h1.124v1.142zM16.944 3.425H15.82V2.283h1.124v1.142zM15.82 3.425h-1.124V2.283h1.124v1.142zM6.829 3.425H5.705V2.283h1.124v1.142z" opacity=".1" style="fill:var(--color2, #fcf9f9)"/><path fill="#fcf9f9" d="M5.706 3.425H4.582V2.283h1.124v1.142z" opacity=".1" style="fill:var(--color2, #fcf9f9)"/><path fill="#fcf9f9" d="M4.582 3.425H3.458V2.283h1.124v1.142zM2.334 3.425H1.21V2.283h1.124v1.142zM1.21 3.425H.086V2.283H1.21v1.142z" opacity=".1" style="fill:var(--color2, #fcf9f9)"/><path fill="#fcf9f9" d="M.087 3.425h-1.124V2.283H.087v1.142zM21.439 2.283h-1.124V1.141h1.124v1.142zM16.944 2.283H15.82V1.141h1.124v1.142zM15.82 2.283h-1.124V1.141h1.124v1.142zM14.696 2.283h-1.124V1.141h1.124v1.142zM6.829 2.283H5.705V1.141h1.124v1.142z" opacity=".1" style="fill:var(--color2, #fcf9f9)"/><path fill="#fcf9f9" d="M5.706 2.283H4.582V1.141h1.124v1.142zM1.21 2.283H.086V1.141H1.21v1.142z" opacity=".1" style="fill:var(--color2, #fcf9f9)"/><path fill="#fcf9f9" d="M.087 2.283h-1.124V1.141H.087v1.142zM21.439 1.142h-1.124V0h1.124v1.142zM20.315 1.142h-1.124V0h1.124v1.142zM15.82 1.142h-1.124V0h1.124v1.142zM14.696 1.142h-1.124V0h1.124v1.142zM13.572 1.142h-1.124V0h1.124v1.142zM6.829 1.142H5.705V0h1.124v1.142z" opacity=".1" style="fill:var(--color2, #fcf9f9)"/><path fill="#fcf9f9" d="M.087 1.142h-1.124V0H.087v1.142z" opacity=".1" style="fill:var(--color2, #fcf9f9)"/></symbol><symbol id="icon-star" viewBox="0 0 32 32"><path fill="#ecd979" d="M15.434.333a.653.653 0 0 1 1.133 0l1.84 3.203c.19.33.621.429.935.214l3.081-2.107a.653.653 0 0 1 1.02.496l.239 3.642a.653.653 0 0 0 .754.602l3.69-.584c.504-.08.9.423.706.894l-1.386 3.36a.653.653 0 0 0 .421.876l3.555 1.036a.653.653 0 0 1 .252 1.115l-2.731 2.433a.654.654 0 0 0 0 .975l2.731 2.433a.653.653 0 0 1-.252 1.115l-3.555 1.036a.653.653 0 0 0-.421.876l1.386 3.36a.653.653 0 0 1-.706.894l-3.69-.584a.653.653 0 0 0-.754.602l-.239 3.642a.653.653 0 0 1-1.02.496l-3.081-2.107a.653.653 0 0 0-.935.214l-1.84 3.203a.653.653 0 0 1-1.133 0l-1.84-3.203a.653.653 0 0 0-.935-.214l-3.081 2.107a.652.652 0 0 1-1.02-.496l-.239-3.642a.653.653 0 0 0-.754-.602l-3.69.584a.653.653 0 0 1-.706-.894l1.386-3.36a.653.653 0 0 0-.421-.876L.579 20.036a.653.653 0 0 1-.252-1.115l2.731-2.433a.654.654 0 0 0 0-.975L.327 13.08a.653.653 0 0 1 .252-1.115l3.555-1.036a.653.653 0 0 0 .421-.876l-1.386-3.36a.653.653 0 0 1 .706-.894l3.69.584c.38.06.729-.219.754-.602l.239-3.642a.653.653 0 0 1 1.02-.496l3.081 2.107a.653.653 0 0 0 .935-.214l1.84-3.203z" style="fill:var(--color1, #ecd979)"/></symbol><symbol id="icon-vector" viewBox="0 0 45 32"><path fill="#ecd979" d="M39.199 18.762a60.644 60.644 0 0 1-.476-4.927c-.031-1.468.025-2.739.167-3.812L3.182 30.639l-1.689-2.926L37.201 7.097c-1.027-.459-2.169-1.07-3.425-1.831a69.092 69.092 0 0 1-3.989-2.806l2.144-1.238c4.53 1.905 8.673 2.857 12.429 2.856l.724 1.254c-1.906 3.206-3.153 7.27-3.741 12.192l-2.144 1.238z" style="fill:var(--color1, #ecd979)"/></symbol><symbol id="icon-youtube" viewBox="0 0 32 32"><path fill="#fcf9f9" d="M24.24 6c-1.36-.08-4.16-.16-8.4-.16h-.56c-4.08 0-6.8.08-8.16.24-1.84.16-3.12.64-3.84 1.28-.64.56-1.12 1.6-1.28 2.96-.08.88-.16 2.72-.16 5.52v.4c0 2.64.08 4.48.24 5.36.24 1.28.64 2.24 1.44 2.8.8.64 2.16 1.04 4.08 1.2 1.36.08 4.16.16 8.4.16h.56c4.08 0 6.8-.08 8.16-.24 1.84-.16 3.12-.64 3.84-1.28.64-.56 1.12-1.6 1.28-2.96.08-.88.16-2.72.16-5.52v-.4c0-2.64-.08-4.48-.24-5.36-.24-1.28-.64-2.24-1.44-2.8-.8-.64-2.16-1.04-4.08-1.2zm-3.12 9.84-8.8 5.28V10.56l8.8 5.28z" opacity=".8" style="fill:var(--color2, #fcf9f9)"/></symbol></defs></svg>